{
  "accessors": [
    {
      "bufferView": 2,
      "componentType": 5126,
      "count": 30765,
      "max": [
        0.70130002498626709,
        0.39100000262260437,
        0.42719998955726624
      ],
      "min": [
        -0.78280001878738403,
        -3.127000093460083,
        -0.95499998331069946
      ],
      "type": "VEC3"
    },
    {
      "bufferView": 2,
      "byteOffset": 369180,
      "componentType": 5126,
      "count": 30765,
      "max": [
        0.99999582767486572,
        0.99998462200164795,
        0.99997282028198242
      ],
      "min": [
        -0.99999785423278809,
        -0.99999988079071045,
        -0.99995887279510498
      ],
      "type": "VEC3"
    },
    {
      "bufferView": 3,
      "componentType": 5126,
      "count": 30765,
      "max": [
        0.99992644786834717,
        0.99988317489624023,
        0.99995291233062744,
        1
      ],
      "min": [
        -0.99998068809509277,
        -0.99989372491836548,
        -0.9999958872795105,
        -1
      ],
      "type": "VEC4"
    },
    {
      "bufferView": 1,
      "componentType": 5126,
      "count": 30765,
      "max": [
        0.9650999903678894,
        0.99980002641677856
      ],
      "min": [
        9.9999997473787516e-05,
        9.9999997473787516e-05
      ],
      "type": "VEC2"
    },
    {
      "bufferView": 0,
      "componentType": 5125,
      "count": 176364,
      "max": [
        30764
      ],
      "min": [
        0
      ],
      "type": "SCALAR"
    }
  ],
  "asset": {
    "extras": {
      "author": "Scottish Maritime Museum (https://sketchfab.com/ScottishMaritimeMuseum)",
      "license": "CC0-1.0 (http://creativecommons.org/publicdomain/zero/1.0/)",
      "source": "https://sketchfab.com/3d-models/figurehead-of-hms-prince-of-wales-55101f971ed74f03a48045f23411bacd",
      "title": "Figurehead of HMS \"Prince Of Wales\""
    },
    "generator": "Sketchfab-7.80.0",
    "version": "2.0"
  },
  "bufferViews": [
    {
      "buffer": 0,
      "byteLength": 705456,
      "byteOffset": 0,
      "name": "floatBufferViews",
      "target": 34963
    },
    {
      "buffer": 0,
      "byteLength": 246120,
      "byteOffset": 705456,
      "byteStride": 8,
      "name": "floatBufferViews",
      "target": 34962
    },
    {
      "buffer": 0,
      "byteLength": 738360,
      "byteOffset": 951576,
      "byteStride": 12,
      "name": "floatBufferViews",
      "target": 34962
    },
    {
      "buffer": 0,
      "byteLength": 492240,
      "byteOffset": 1689936,
      "byteStride": 16,
      "name": "floatBufferViews",
      "target": 34962
    }
  ],
  "buffers": [
    {
      "byteLength": 2182176,
      "uri": "scene_prince.bin"
    }
  ],
  "images": [
    {
      "uri": "textures/material_0_baseColor.png"
    },
    {
      "uri": "textures/material_0_normal.png"
    }
  ],
  "materials": [
    {
      "doubleSided": true,
      "name": "material_0",
      "normalTexture": {
        "index": 1,
        "scale": 1,
        "texCoord": 0
      },
      "pbrMetallicRoughness": {
        "baseColorFactor": [
          1,
          1,
          1,
          1
        ],
        "baseColorTexture": {
          "index": 0,
          "texCoord": 0
        },
        "metallicFactor": 0,
        "roughnessFactor": 1
      }
    }
  ],
  "meshes": [
    {
      "primitives": [
        {
          "attributes": {
            "NORMAL": 1,
            "POSITION": 0,
            "TANGENT": 2,
            "TEXCOORD_0": 3
          },
          "indices": 4,
          "material": 0,
          "mode": 4
        }
      ]
    }
  ],
  "nodes": [
    {
      "children": [
        1
      ],
      "name": "RootNode (gltf orientation matrix)",
      "rotation": [
        -0.70710678118654746,
        -0,
        -0,
        0.70710678118654757
      ]
    },
    {
      "children": [
        2
      ],
      "matrix": [
        -0.59834158420562744,
        -0.80083191394805908,
        -0.025603258982300758,
        0,
        0.0058131120167672634,
        0.027614826336503029,
        -0.99960172176361084,
        0,
        0.80121999979019165,
        -0.59825211763381958,
        -0.011867773719131947,
        0,
        0.15426188707351685,
        -1.5207356214523315,
        -1.6355304718017578,
        1
      ],
      "name": "RootNode (model correction matrix)"
    },
    {
      "children": [
        3
      ],
      "name": "PrinceOfWales.obj.cleaner.materialmerger.gles"
    },
    {
      "mesh": 0,
      "name": ""
    }
  ],
  "samplers": [
    {
      "magFilter": 9729,
      "minFilter": 9987,
      "wrapS": 10497,
      "wrapT": 10497
    }
  ],
  "scene": 0,
  "scenes": [
    {
      "name": "OSG_Scene",
      "nodes": [
        0
      ]
    }
  ],
  "textures": [
    {
      "sampler": 0,
      "source": 0
    },
    {
      "sampler": 0,
      "source": 1
    }
  ]
}

